<?xml version="1.0" encoding="iso-8859-1"?>
<!-- Generator: Adobe Illustrator 19.0.0, SVG Export Plug-In . SVG Version: 6.00 Build 0)  -->
<svg xmlns="http://www.w3.org/2000/svg" xmlns:xlink="http://www.w3.org/1999/xlink" version="1.1" id="Layer_1" x="0px" y="0px" viewBox="0 0 490.765 490.765" style="enable-background:new 0 0 490.765 490.765;" xml:space="preserve" width="512px" height="512px">
<g>
	<g>
		<path d="M373.276,330.755c0-19.52-12.907-34.56-32.213-40.213c1.173-6.933,2.453-14.293,3.84-22.4    c9.6-55.573,22.613-131.627,28.053-182.08c2.133-20.48-3.52-37.867-16.853-51.627c-20.8-21.547-56.96-29.76-86.613-32.747    l0.107-1.173c-1.173-0.107-10.667-0.64-24.32-0.427c-13.547-0.32-22.933,0.32-24.107,0.427l0.107,1.173    c-29.653,2.987-65.813,11.2-86.613,32.747c-13.333,13.867-18.987,31.253-16.853,51.627c6.08,56.853,20.907,149.013,30.187,204.8    c-18.453,5.973-30.613,20.8-30.613,39.787c0,2.453,0.32,4.907,0.747,7.253c-0.427,1.067-0.747,2.24-0.747,3.413v138.347    c0,5.333,3.84,10.133,9.067,10.88c6.613,0.96,12.267-4.16,12.267-10.56V366.595c6.613,3.52,13.973,5.76,21.44,6.293    c0,0.213-0.107,0.32-0.107,0.533v74.347c0,5.333,3.84,10.133,9.067,10.88c6.613,0.96,12.267-4.16,12.267-10.56v-74.667h128v74.347    c0,5.333,3.84,10.133,9.067,10.88c6.613,0.96,12.267-4.16,12.267-10.56v-74.667c0-0.213-0.107-0.32-0.107-0.533    c7.467-0.64,14.827-2.773,21.44-6.4v113.28c0,5.333,3.84,10.133,9.067,10.88c6.613,0.96,12.267-4.16,12.267-10.56V341.422    c-0.107-1.387-0.32-2.667-0.853-3.947C372.956,335.235,373.169,332.995,373.276,330.755z M138.929,83.822    c-1.493-13.973,2.133-25.28,10.987-34.56c21.547-22.4,67.627-27.093,95.36-27.733c27.84,0.64,73.813,5.333,95.36,27.733    c8.853,9.173,12.48,20.48,10.987,34.56c-5.333,49.813-18.347,125.44-27.84,180.693c-1.493,8.533-2.773,16.213-4.053,23.467    h-150.72C159.729,232.515,144.902,140.249,138.929,83.822z M324.209,352.089H166.236c-13.333,0-27.733-6.72-27.733-21.333    s14.4-21.333,27.733-21.333h157.973c13.333,0,27.733,6.72,27.733,21.333S337.543,352.089,324.209,352.089z" fill="#004a5b"/>
	</g>
</g>
<g>
</g>
<g>
</g>
<g>
</g>
<g>
</g>
<g>
</g>
<g>
</g>
<g>
</g>
<g>
</g>
<g>
</g>
<g>
</g>
<g>
</g>
<g>
</g>
<g>
</g>
<g>
</g>
<g>
</g>
</svg>
