<?xml version="1.0" encoding="iso-8859-1"?>
<!-- Generator: Adobe Illustrator 19.0.0, SVG Export Plug-In . SVG Version: 6.00 Build 0)  -->
<svg version="1.1" id="Layer_1" xmlns="http://www.w3.org/2000/svg" xmlns:xlink="http://www.w3.org/1999/xlink" x="0px" y="0px"
	 viewBox="0 0 512 512" style="enable-background:new 0 0 512 512;" xml:space="preserve">
<g>
	<g>
		<path d="M473.6,38.4c-51.2-51.2-133.818-51.2-183.855,0L204.8,123.345c-4.655,4.655-4.655,11.636,0,16.291s11.636,4.655,16.291,0
			l84.946-84.945c41.891-41.891,109.382-41.891,151.273,0c41.891,41.891,41.891,109.382,0,151.273L339.782,323.491L180.364,164.073
			c-4.655-4.655-11.636-4.655-16.291,0L38.4,289.745c-51.2,51.2-51.2,133.818,0,183.855C64,499.2,96.582,512,130.327,512
			c33.745,0,66.327-12.8,91.927-38.4l84.945-84.945c4.655-4.655,4.655-11.636,0-16.291s-11.636-4.655-16.291,0l-84.946,84.945
			c-41.891,41.891-109.382,41.891-151.273,0c-41.891-41.891-41.891-109.382,0-151.273l117.527-117.527l159.418,159.418
			c4.655,4.655,11.636,4.655,16.291,0L473.6,222.255C524.8,171.055,524.8,88.436,473.6,38.4z"/>
	</g>
</g>
<g>
	<g>
		<path d="M442.182,70.982c-31.418-31.418-83.782-31.418-115.2,0l-34.909,34.909c-4.655,4.655-4.655,11.636,0,16.291
			c2.327,2.327,5.818,3.491,8.145,3.491s5.818-1.164,8.145-3.491l34.909-34.909c22.109-22.109,59.345-22.109,82.618,0
			c2.327,2.327,5.818,3.491,8.145,3.491c3.491,0,5.818-1.164,8.145-3.491C446.836,82.618,446.836,75.636,442.182,70.982z"/>
	</g>
</g>
<g>
</g>
<g>
</g>
<g>
</g>
<g>
</g>
<g>
</g>
<g>
</g>
<g>
</g>
<g>
</g>
<g>
</g>
<g>
</g>
<g>
</g>
<g>
</g>
<g>
</g>
<g>
</g>
<g>
</g>
</svg>
